HIERARCHY
ROOT hip
{
	OFFSET 0.000000 0.000000 0.000000 
	CHANNELS 6 Xposition Yposition Zposition Xrotation Zrotation Yrotation
	JOINT abdomen
	{
		OFFSET 0.000000 3.402643 0.000000 
		CHANNELS 3 Xrotation Zrotation Yrotation
		JOINT chest
		{
			OFFSET 0.000000 8.438565 -0.680529 
			CHANNELS 3 Xrotation Zrotation Yrotation
			JOINT neck
			{
				OFFSET 0.000000 10.207942 -0.272212 
				CHANNELS 3 Xrotation Zrotation Yrotation
				JOINT head
				{
					OFFSET 0.000000 3.130431 0.000000 
					CHANNELS 3 Xrotation Zrotation Yrotation
					End Site
					{
						OFFSET 0.000000 3.130435 0.000000 
					}
				}
			}
			JOINT lCollar
			{
				OFFSET 3.470700 6.669187 -0.816635 
				CHANNELS 3 Yrotation Zrotation Xrotation
				JOINT lShldr
				{
					OFFSET 3.198488 0.000000 0.000000 
					CHANNELS 3 Zrotation Yrotation Xrotation
					JOINT lForeArm
					{
						OFFSET 10.139888 0.000000 0.000000 
						CHANNELS 3 Yrotation Zrotation Xrotation
						JOINT lHand
						{
							OFFSET 8.370511 0.000000 0.000000 
							CHANNELS 3 Zrotation Yrotation Xrotation
							End Site
							{
								OFFSET 4.083176 0.000000 0.000000 
							}
						}
					}
				}
			}
			JOINT rCollar
			{
				OFFSET -3.470700 6.669187 -0.816635 
				CHANNELS 3 Yrotation Zrotation Xrotation
				JOINT rShldr
				{
					OFFSET -3.198488 0.000000 0.000000 
					CHANNELS 3 Zrotation Yrotation Xrotation
					JOINT rForeArm
					{
						OFFSET -10.139888 0.000000 0.000000 
						CHANNELS 3 Yrotation Zrotation Xrotation
						JOINT rHand
						{
							OFFSET -8.370511 0.000000 0.000000 
							CHANNELS 3 Zrotation Yrotation Xrotation
							End Site
							{
								OFFSET -4.083176 0.000000 0.000000 
							}
						}
					}
				}
			}
		}
	}
	JOINT lThigh
	{
		OFFSET 5.308129 -1.633274 1.361059 
		CHANNELS 3 Xrotation Zrotation Yrotation
		JOINT lShin
		{
			OFFSET -2.041588 -20.007561 0.000000 
			CHANNELS 3 Xrotation Zrotation Yrotation
			JOINT lFoot
			{
				OFFSET 0.000000 -19.190928 -1.224953 
				CHANNELS 3 Xrotation Yrotation Zrotation
				End Site
				{
					OFFSET 0.000000 -2.449906 4.627600 
				}
			}
		}
	}
	JOINT rThigh
	{
		OFFSET -5.308129 -1.633274 1.361059 
		CHANNELS 3 Xrotation Zrotation Yrotation
		JOINT rShin
		{
			OFFSET 2.041588 -20.007561 0.000000 
			CHANNELS 3 Xrotation Zrotation Yrotation
			JOINT rFoot
			{
				OFFSET 0.000000 -19.190928 -1.224953 
				CHANNELS 3 Xrotation Yrotation Zrotation
				End Site
				{
					OFFSET 0.000000 -2.449906 4.627600 
				}
			}
		}
	}
}
MOTION
Frames: 14
Frame Time: 0.016667
-0.034509 35.140408 -2.130878 -28.609800 3.087260 4.108740 -6.206290 0.014113 2.139830 19.560499 0.449151 0.685550 13.654700 2.434540 6.224060 10.438500 5.974660 3.387420 2.000000 -2.000000 0.000000 -56.708900 -33.931301 -152.608994 71.553299 -0.258110 0.129742 0.046411 -0.023813 -145.457001 -2.000000 2.000000 0.000000 59.818001 17.539801 -167.925003 -82.637199 0.232370 0.135597 -0.056594 -0.016694 -127.430000 -37.964417 24.522144 17.651533 136.125702 -7.505152 3.972576 -33.265144 -7.585560 -13.733068 -30.314976 -37.084419 -26.344208 140.786316 8.473289 -3.870788 -40.277962 14.708519 18.834429 
-0.049816 35.125805 -2.067451 -28.411699 2.637480 4.140590 -6.097570 0.038515 2.230890 19.746099 0.087882 0.770256 12.965500 2.236990 6.185910 10.231300 5.899780 3.377200 2.000000 -2.000000 0.000000 -56.182098 -34.409302 -152.358994 71.543503 -0.258132 0.129735 0.046724 -0.025812 -146.179993 -2.000000 2.000000 0.000000 59.993801 17.248199 -168.511002 -82.940002 0.231653 0.135688 -0.056694 -0.017287 -127.214996 -38.169968 25.168798 17.289480 136.381378 -7.560039 3.950982 -33.376499 -6.794937 -13.660347 -30.467730 -36.515511 -26.553389 140.708115 8.485091 -3.875930 -39.619778 14.891052 18.673761 
-0.066767 35.030991 -1.982558 -28.278200 2.769880 4.087340 -6.028810 0.019562 2.260480 19.755899 0.097647 0.779902 12.260200 1.965870 6.068900 10.034000 5.824640 3.319680 2.000000 -2.000000 0.000000 -56.221298 -34.682301 -152.143005 71.563004 -0.258088 0.129749 0.046772 -0.026109 -146.287003 -2.000000 2.000000 0.000000 59.993900 17.053801 -168.912003 -83.320801 0.230751 0.135796 -0.056567 -0.016532 -127.487999 -38.302864 24.907288 17.030022 136.633499 -7.637094 3.954934 -33.375690 -6.190175 -13.597466 -30.914003 -36.547401 -26.055468 140.997818 8.557635 -3.879434 -39.108826 15.277909 18.801781 
-0.055734 35.034023 -1.926366 -28.305700 2.700340 3.810430 -5.813990 -0.087617 2.268370 19.990200 -0.185538 0.792850 11.155200 2.004330 5.841810 9.720010 5.838260 3.210800 2.000000 -2.000000 0.000000 -56.407700 -34.888000 -152.455002 71.777901 -0.257601 0.129910 0.046858 -0.026622 -146.473007 -2.000000 2.000000 0.000000 60.306599 17.093599 -169.233994 -83.750504 0.229732 0.135912 -0.056370 -0.015317 -127.928001 -37.929558 25.084898 17.213036 136.647141 -7.647257 3.965923 -33.413799 -6.147306 -13.604921 -31.399715 -36.200882 -25.620552 140.852402 8.519236 -3.885622 -38.386387 15.172934 18.474072 
-0.042947 35.033913 -1.892451 -28.168301 2.677970 3.586540 -5.707410 -0.205519 2.221520 20.078100 -0.361316 0.774502 9.517730 2.305720 5.560580 9.220620 5.951100 3.081910 2.000000 -2.000000 0.000000 -56.759602 -34.849701 -152.778000 72.158699 -0.256737 0.130192 0.046817 -0.026379 -146.384995 -2.000000 2.000000 0.000000 60.492100 16.996201 -169.341995 -84.287598 0.228457 0.136045 -0.056223 -0.014371 -128.268997 -38.174160 24.781687 17.059130 136.649689 -7.655221 3.986196 -33.075783 -5.451321 -13.340703 -31.951502 -35.965115 -25.169790 140.762741 8.502279 -3.874565 -37.878258 15.146604 18.244440 
-0.029162 35.035370 -1.859906 -27.941401 2.977140 3.304950 -5.532910 -0.401902 2.152140 20.302700 -0.361325 0.714492 6.902020 2.274640 4.940380 8.434100 5.852430 2.806070 2.000000 -2.000000 0.000000 -56.848400 -34.948601 -153.373001 72.666496 -0.255582 0.130558 0.046904 -0.026891 -146.570007 -2.000000 2.000000 0.000000 60.765598 17.152500 -169.350998 -84.805199 0.227228 0.136163 -0.056277 -0.014722 -128.141998 -38.552021 23.897873 16.931273 136.508331 -7.662872 3.985752 -32.585949 -4.682708 -12.978386 -32.707020 -36.176727 -24.375736 140.788345 8.483870 -3.868357 -37.707161 15.669720 18.293407 
-0.017385 35.069523 -1.852279 -27.754499 2.939030 3.200590 -5.523890 -0.403041 2.095200 20.205099 -0.361321 0.676045 4.047500 2.360430 4.047300 7.777180 5.946250 2.413020 2.000000 -2.000000 0.000000 -57.189899 -34.772900 -153.403000 73.262299 -0.254223 0.130974 0.047201 -0.028588 -147.184998 -2.000000 2.000000 0.000000 60.951099 17.015800 -169.360992 -85.303299 0.226044 0.136265 -0.056319 -0.014993 -128.044998 -39.099480 23.309671 16.328203 136.408737 -7.666332 4.004416 -32.265495 -4.377478 -12.752994 -33.485062 -35.903053 -23.706997 140.617767 8.458376 -3.879247 -37.160831 16.135599 18.125561 
-0.015841 35.055706 -1.840506 -27.285801 2.578130 3.338820 -5.595160 -0.420548 1.861310 20.097601 -0.458970 0.579849 1.606270 2.673280 3.140840 7.268210 6.145520 2.039370 2.000000 -2.000000 0.000000 -57.053200 -34.695000 -153.520004 73.731003 -0.253151 0.131292 0.047487 -0.030121 -147.742004 -2.000000 2.000000 0.000000 61.214802 17.152100 -169.156006 -85.606003 0.225324 0.136323 -0.056260 -0.014614 -128.182007 -40.516464 22.758312 14.933331 136.561630 -7.718687 3.989984 -31.594048 -4.279869 -12.604634 -34.700932 -35.038422 -23.085745 140.420456 8.450936 -3.895754 -36.174160 16.063805 17.737610 
0.008318 35.124008 -1.808365 -27.030701 2.540500 3.070120 -5.800200 -0.371585 1.860240 19.872999 -0.380832 0.580716 -0.700730 2.986680 2.081980 6.424180 6.249260 1.532510 2.000000 -2.000000 0.000000 -57.295898 -34.312901 -152.934998 74.111900 -0.252277 0.131543 0.047819 -0.031811 -148.356995 -2.000000 2.000000 0.000000 61.263100 16.770300 -168.785995 -85.703598 0.225091 0.136340 -0.056190 -0.014155 -128.348007 -40.976036 22.192062 14.565568 136.351715 -7.682460 4.006029 -31.064562 -4.259602 -12.365712 -35.571472 -34.630032 -22.525730 140.208450 8.400249 -3.901799 -35.374866 15.762210 17.311523 
0.033001 35.181187 -1.770653 -26.843399 2.884730 2.896850 -5.958020 -0.383855 1.721900 19.628901 -0.009764 0.478672 -2.136210 3.135880 1.059960 6.061460 6.378410 1.067970 2.000000 -2.000000 0.000000 -57.294601 -33.979698 -152.393997 74.522003 -0.251335 0.131808 0.048332 -0.034246 -149.246002 -2.000000 2.000000 0.000000 61.155499 16.808001 -168.210007 -85.547401 0.225463 0.136312 -0.056227 -0.014398 -128.259995 -41.314610 21.026779 14.272935 136.081650 -7.658318 4.036590 -30.616009 -4.071804 -12.048646 -35.717125 -35.203594 -22.251013 140.277695 8.420166 -3.907042 -35.063175 15.944284 17.297962 
0.044027 35.221180 -1.732257 -26.616600 2.811850 2.801000 -6.174460 -0.344640 1.559670 19.345699 0.165979 0.396882 -3.300290 3.237960 0.110344 5.747610 6.487570 0.626303 2.000000 -2.000000 0.000000 -57.215302 -33.675800 -151.848007 74.639198 -0.251065 0.131882 0.048611 -0.035501 -149.705002 -2.000000 2.000000 0.000000 61.213699 16.738199 -167.585007 -85.361900 0.225904 0.136277 -0.056260 -0.014614 -128.182007 -41.950115 20.410051 13.565225 135.969879 -7.658968 4.048358 -30.191833 -4.289384 -11.911807 -36.189926 -34.901699 -22.038191 140.158035 8.406327 -3.892512 -34.035522 15.425486 16.858116 
0.052316 35.255669 -1.691275 -26.355400 2.511810 2.799470 -6.283440 -0.357624 1.391410 19.316401 -0.009763 0.332241 -4.377570 3.350190 -0.807688 5.463160 6.606180 0.206604 2.000000 -2.000000 0.000000 -57.028900 -33.577202 -151.399002 74.795502 -0.250706 0.131980 0.048807 -0.036354 -150.016998 -2.000000 2.000000 0.000000 61.389198 16.678699 -167.194000 -85.107903 0.226508 0.136226 -0.056306 -0.014912 -128.074005 -42.650524 20.046988 12.649707 135.910446 -7.662534 4.030793 -30.046532 -4.898798 -11.918610 -36.490208 -34.417236 -22.077763 139.980591 8.393665 -3.921297 -33.341022 15.134507 16.532330 
0.045095 35.305656 -1.644184 -26.101101 2.929700 2.706610 -6.372320 -0.437439 1.287310 19.257799 0.224552 0.258581 -5.283010 3.381710 -1.457730 5.217790 6.695210 -0.083334 2.000000 -2.000000 0.000000 -56.833199 -33.576500 -151.057007 74.951698 -0.250346 0.132077 0.048857 -0.036567 -150.095993 -2.000000 2.000000 0.000000 61.388901 16.599800 -166.852997 -84.971199 0.226833 0.136198 -0.056327 -0.015047 -128.024994 -43.143124 18.854212 12.231606 135.424530 -7.577221 4.077828 -29.654987 -6.163537 -11.811223 -36.551804 -35.160141 -22.030050 139.955185 8.375106 -3.903777 -33.308685 15.679087 16.591183 
0.021090 35.680756 -1.728976 -25.865499 3.269710 2.254250 -6.470050 -0.514897 1.297610 19.247999 0.449102 0.233882 -6.083180 3.428100 -1.735740 4.952740 6.803730 -0.200231 2.000000 -2.000000 0.000000 -56.872002 -33.400799 -151.097000 74.863800 -0.250548 0.132023 0.048239 -0.033819 -149.089996 -2.000000 2.000000 0.000000 61.437401 16.530199 -166.306000 -84.951698 0.226880 0.136194 -0.056323 -0.015020 -128.035004 -43.829372 18.274343 12.219879 133.968262 -7.265322 4.111687 -28.064449 -8.624568 -11.277325 -36.550236 -35.891304 -22.632311 139.026337 8.127480 -3.947033 -32.416142 16.380392 15.975157 
